# Blender v2.71 (sub 0) OBJ File: 'TraderShack_01.blend'
# www.blender.org
mtllib MetalBeam_02.mtl
o MetalBeam_02_Cube.024
v -5.114621 7.514569 5.118486
v 5.114621 7.514569 4.922859
v 5.114621 7.514569 5.118486
v 5.114621 8.753388 4.922859
v 5.114621 8.753388 5.118486
v -5.114621 7.514569 4.922861
v -5.114621 8.753388 5.118489
v -5.114621 8.753388 4.922861
v 5.114621 8.753388 4.922859
v 5.114621 8.753388 4.922859
v 5.114621 7.514569 4.922859
v 5.114621 7.514569 4.922859
v 5.114621 8.753388 5.118486
v 5.114621 8.753388 5.118486
v 5.114621 7.514569 5.118486
v 5.114621 7.514569 5.118486
v -5.114621 7.514569 5.118486
v -5.114621 7.514569 5.118486
v -5.114621 8.753388 5.118489
v -5.114621 8.753388 5.118489
v -5.114621 8.753388 4.922861
v -5.114621 8.753388 4.922861
v -5.114621 7.514569 4.922861
v -5.114621 7.514569 4.922861
vt 0.774025 0.563126
vt 0.774025 0.551035
vt 0.869008 0.551035
vt 0.869008 0.563126
vt 0.665068 0.989936
vt 0.597289 0.989936
vt 0.597289 0.594874
vt 0.665068 0.594874
vt 0.589377 0.594874
vt 0.589377 0.989936
vt 0.521598 0.989936
vt 0.521598 0.594874
vt 0.978020 0.551035
vt 0.978020 0.563126
vt 0.665012 0.563126
vt 0.665012 0.551035
vt 0.545365 0.563127
vt 0.545365 0.551035
vn 1.000000 0.000000 0.000000
vn -0.000000 0.000000 -1.000000
vn 0.000000 -0.000000 1.000000
vn 0.000000 -1.000000 0.000000
vn 0.000000 1.000000 0.000000
vn -1.000000 0.000000 0.000000
usemtl Material.007
s 1
f 4/1/1 5/2/1 3/3/1 2/4/1
s 2
f 21/5/2 9/6/2 11/7/2 6/8/2
s 3
f 13/9/3 19/10/3 1/11/3 15/12/3
s 4
f 17/13/4 23/14/4 12/4/4 16/3/4
s 5
f 14/2/5 10/1/5 8/15/5 7/16/5
s 6
f 20/16/6 22/15/6 24/17/6 18/18/6
