# Blender v2.71 (sub 0) OBJ File: 'TraderShack_01.blend'
# www.blender.org
mtllib MetalSheet_02.mtl
o MetalSheet_02_Cube.022
v -5.237255 0.098197 3.751443
v -5.237255 2.884355 -5.557185
v -5.134664 2.884355 -5.557185
v -5.134664 0.098197 3.751443
v -5.237255 5.532483 5.372972
v -5.237255 8.310463 -3.926744
v -5.134664 8.310463 -3.926744
v -5.134664 5.532483 5.372972
v -5.237255 0.098197 3.751443
v -5.237255 0.098197 3.751443
v -5.237255 5.532483 5.372972
v -5.237255 5.532483 5.372972
v -5.237255 8.310463 -3.926744
v -5.237255 8.310463 -3.926744
v -5.237255 2.884355 -5.557185
v -5.237255 2.884355 -5.557185
v -5.134664 8.310463 -3.926744
v -5.134664 8.310463 -3.926744
v -5.134664 2.884355 -5.557185
v -5.134664 2.884355 -5.557185
v -5.134664 5.532483 5.372972
v -5.134664 5.532483 5.372972
v -5.134664 0.098197 3.751443
v -5.134664 0.098197 3.751443
vt 0.190712 0.707316
vt 0.365971 0.707044
vt 0.365971 0.809619
vt 0.190716 0.809402
vt 0.772502 0.579264
vt 0.772502 0.566707
vt 0.832873 0.566707
vt 0.832873 0.579264
vt 0.182549 0.808496
vt 0.007293 0.808278
vt 0.007289 0.706192
vt 0.182549 0.705921
vt 0.996833 0.566706
vt 0.996833 0.579263
vt 0.936406 0.579264
vt 0.936406 0.566707
vt 0.669084 0.566706
vt 0.669083 0.579263
vn -1.000000 0.000000 0.000000
vn 0.000000 0.287800 -0.957700
vn 1.000000 -0.000000 0.000000
vn 0.000000 -0.285900 0.958300
vn 0.000000 -0.958000 -0.286700
vn 0.000000 0.958200 0.286200
usemtl Material.010
s 1
f 5/1/1 6/2/1 2/3/1 1/4/1
s 2
f 13/5/2 7/6/2 3/7/2 15/8/2
s 3
f 17/9/3 8/10/3 4/11/3 19/12/3
s 4
f 21/13/4 11/14/4 9/15/4 23/16/4
s 5
f 10/15/5 16/8/5 20/7/5 24/16/5
s 6
f 22/17/6 18/6/6 14/5/6 12/18/6
