# Blender v2.71 (sub 0) OBJ File: 'TraderShack_01.blend'
# www.blender.org
mtllib MetalSheet_03.mtl
o MetalSheet_03_Cube.020
v -5.305850 -0.971405 4.903527
v -5.305850 -1.271191 -4.785274
v -5.167219 -1.271191 -4.785274
v -5.167219 -0.971405 4.903527
v -5.305850 4.697579 4.731482
v -5.305850 4.407394 -4.977175
v -5.167219 4.407394 -4.977175
v -5.167219 4.697579 4.731482
v -5.305850 -0.971405 4.903527
v -5.305850 -0.971405 4.903527
v -5.305850 4.697579 4.731482
v -5.305850 4.697579 4.731482
v -5.305850 4.407394 -4.977175
v -5.305850 4.407394 -4.977175
v -5.305850 -1.271191 -4.785274
v -5.305850 -1.271191 -4.785274
v -5.167219 4.407394 -4.977175
v -5.167219 4.407394 -4.977175
v -5.167219 -1.271191 -4.785274
v -5.167219 -1.271191 -4.785274
v -5.167219 4.697579 4.731482
v -5.167219 4.697579 4.731482
v -5.167219 -0.971405 4.903527
v -5.167219 -0.971405 4.903527
vt 0.190712 0.596906
vt 0.365971 0.596635
vt 0.365971 0.699210
vt 0.190716 0.698992
vt 0.935154 0.595598
vt 0.935154 0.583658
vt 0.995770 0.583658
vt 0.995770 0.595598
vt 0.182549 0.699949
vt 0.007293 0.699732
vt 0.007289 0.597645
vt 0.182549 0.597374
vt 0.831532 0.583658
vt 0.831532 0.595598
vt 0.771025 0.595598
vt 0.771025 0.583658
vt 0.667612 0.595598
vt 0.667612 0.583658
vn -1.000000 0.000000 0.000000
vn 0.000000 -0.033800 -0.999400
vn 1.000000 0.000000 0.000000
vn 0.000000 0.030300 0.999500
vn 0.000000 -0.999500 0.030900
vn 0.000000 0.999600 -0.029900
usemtl Material.009
s 1
f 5/1/1 6/2/1 2/3/1 1/4/1
s 2
f 13/5/2 7/6/2 3/7/2 15/8/2
s 3
f 17/9/3 8/10/3 4/11/3 19/12/3
s 4
f 21/13/4 11/14/4 9/15/4 23/16/4
s 5
f 10/15/5 16/17/5 20/18/5 24/16/5
s 6
f 22/13/6 18/6/6 14/5/6 12/14/6
