# Blender v2.71 (sub 0) OBJ File: 'roadsign.blend'
# www.blender.org
mtllib roadsign.mtl
o Cube.003_Cube.006
v 0.718134 -0.391042 -0.052901
v 0.718134 1.613600 -0.052901
v 0.642749 -0.391042 -0.052901
v 0.642749 1.613600 -0.052901
v 0.671599 1.613600 -0.127540
v 0.689285 1.613600 -0.127540
v 0.689285 -0.391042 -0.127540
v 0.671599 -0.391042 -0.127540
v 0.690464 1.613600 -0.052901
v 0.670420 1.613600 -0.052901
v 0.670420 -0.391042 -0.052901
v 0.690464 -0.391042 -0.052901
v 0.718134 1.613600 -0.068962
v 0.642749 -0.391042 -0.068962
v 0.718134 -0.391042 -0.068962
v 0.642749 1.613600 -0.068962
v 0.670420 -0.391042 -0.068962
v 0.690464 -0.391042 -0.068962
v 0.690464 1.613600 -0.068962
v 0.670420 1.613600 -0.068962
v 0.680442 1.613600 -0.128873
v 0.680442 -0.391042 -0.128873
v 0.680442 1.613600 -0.052901
v 0.680442 -0.391042 -0.052901
v 0.680442 -0.391042 -0.068962
v 0.680442 1.613600 -0.068962
v 0.670420 -0.391042 -0.121490
v 0.690464 -0.391042 -0.121490
v 0.690464 1.613600 -0.121490
v 0.670420 1.613600 -0.121490
v 0.680442 -0.391042 -0.121490
v 0.680442 1.613600 -0.121490
v 1.000872 0.651689 -0.052900
v 0.899112 0.549929 -0.052900
v 0.980829 0.569972 -0.052900
v 0.899112 0.549929 -0.030827
v 1.000872 0.651689 -0.030827
v 0.980829 0.569972 -0.030827
v 0.899112 1.837225 -0.052900
v 1.000872 1.735465 -0.052900
v 0.980829 1.817183 -0.052900
v 1.000872 1.735465 -0.030827
v 0.899112 1.837225 -0.030827
v 0.980829 1.817183 -0.030827
v -1.000872 0.651689 -0.052900
v -0.899112 0.549929 -0.052900
v -0.980829 0.569972 -0.052900
v -0.899112 0.549929 -0.030827
v -1.000872 0.651689 -0.030827
v -0.980829 0.569972 -0.030827
v -0.899112 1.837225 -0.052900
v -1.000872 1.735465 -0.052900
v -0.980829 1.817183 -0.052900
v -1.000872 1.735465 -0.030827
v -0.899112 1.837225 -0.030827
v -0.980829 1.817183 -0.030827
v 0.718134 1.613600 -0.068962
v 0.718134 1.613600 -0.068962
v 0.718134 1.613600 -0.052901
v 0.718134 1.613600 -0.052901
v 0.670420 1.613600 -0.052901
v 0.642749 1.613600 -0.052901
v 0.642749 1.613600 -0.052901
v 0.642749 -0.391042 -0.068962
v 0.642749 -0.391042 -0.068962
v 0.642749 -0.391042 -0.052901
v 0.642749 -0.391042 -0.052901
v 0.690464 -0.391042 -0.052901
v 0.718134 -0.391042 -0.052901
v 0.718134 -0.391042 -0.052901
v 0.680442 1.613600 -0.128873
v 0.671599 1.613600 -0.127540
v 0.680442 -0.391042 -0.128873
v 0.689285 -0.391042 -0.127540
v 0.690464 1.613600 -0.052901
v 0.680442 1.613600 -0.052901
v 0.670420 -0.391042 -0.052901
v 0.680442 -0.391042 -0.052901
v 0.670420 -0.391042 -0.068962
v 0.670420 -0.391042 -0.068962
v 0.670420 1.613600 -0.068962
v 0.670420 1.613600 -0.068962
v 0.718134 -0.391042 -0.068962
v 0.718134 -0.391042 -0.068962
v 0.642749 1.613600 -0.068962
v 0.642749 1.613600 -0.068962
v 0.670420 -0.391042 -0.121490
v 0.671599 -0.391042 -0.127540
v 0.690464 -0.391042 -0.121490
v 0.690464 1.613600 -0.121490
v 0.689285 1.613600 -0.127540
v 0.670420 1.613600 -0.121490
v 0.690464 -0.391042 -0.068962
v 0.690464 -0.391042 -0.068962
v 0.690464 1.613600 -0.068962
v 0.690464 1.613600 -0.068962
v 0.980829 1.817183 -0.052900
v 0.899112 1.837225 -0.052900
v 0.899112 1.837225 -0.030827
v 0.980829 1.817183 -0.030827
v 1.000872 1.735465 -0.052900
v 1.000872 1.735465 -0.030827
v 0.980829 0.569972 -0.030827
v 0.899112 0.549929 -0.030827
v 0.899112 0.549929 -0.052900
v 0.980829 0.569972 -0.052900
v 1.000872 0.651689 -0.030827
v 1.000872 0.651689 -0.052900
v -0.980829 1.817183 -0.052900
v -0.899112 1.837225 -0.052900
v -0.899112 1.837225 -0.030827
v -0.980829 1.817183 -0.030827
v -1.000872 1.735465 -0.052900
v -1.000872 1.735465 -0.030827
v -0.980829 0.569972 -0.030827
v -0.899112 0.549929 -0.030827
v -0.899112 0.549929 -0.052900
v -0.980829 0.569972 -0.052900
v -1.000872 0.651689 -0.030827
v -1.000872 0.651689 -0.052900
vt 0.598447 0.927273
vt 0.598447 0.952696
vt 0.020728 0.952696
vt 0.020728 0.927274
vt 0.598447 0.884352
vt 0.598447 0.907827
vt 0.020728 0.907827
vt 0.020728 0.884352
vt 0.598447 0.916823
vt 0.020728 0.916823
vt 0.598447 0.870091
vt 0.020728 0.870090
vt 0.843432 0.920961
vt 0.898025 0.920961
vt 0.888196 0.940217
vt 0.843437 0.940217
vt 0.699868 0.940217
vt 0.771621 0.940217
vt 0.771620 0.972450
vt 0.699868 0.972391
vt 0.699859 0.865683
vt 0.771611 0.865688
vt 0.771611 0.900944
vt 0.699859 0.900944
vt 0.699864 0.920961
vt 0.771616 0.920961
vt 0.843428 0.900944
vt 0.888182 0.900944
vt 0.598447 0.751836
vt 0.598447 0.768426
vt 0.020728 0.768424
vt 0.020728 0.751835
vt 0.598447 0.785724
vt 0.598447 0.799804
vt 0.020728 0.799801
vt 0.020728 0.785721
vt 0.020728 0.811752
vt 0.598447 0.811755
vt 0.598447 0.712803
vt 0.020728 0.712802
vt 0.020728 0.851743
vt 0.598447 0.851745
vt 0.843241 0.784162
vt 0.897489 0.784162
vt 0.887721 0.803836
vt 0.843245 0.803836
vt 0.700576 0.803836
vt 0.771909 0.803836
vt 0.771909 0.835488
vt 0.700576 0.835532
vt 0.700567 0.728753
vt 0.771900 0.728672
vt 0.771900 0.764139
vt 0.700567 0.764139
vt 0.700572 0.784162
vt 0.771904 0.784162
vt 0.843237 0.764139
vt 0.887709 0.764139
vt 0.598447 0.966298
vt 0.020728 0.966299
vt 0.598447 0.986032
vt 0.020728 0.986033
vt 0.951732 0.750935
vt 0.951731 0.555223
vt 0.970330 0.555223
vt 0.970330 0.750935
vt 0.951731 0.400640
vt 0.951731 0.204928
vt 0.970329 0.204928
vt 0.970329 0.400639
vt 0.951731 0.195771
vt 0.970329 0.195771
vt 0.951731 0.186613
vt 0.970329 0.186613
vt 0.951731 0.050344
vt 0.970329 0.050345
vt 0.970329 0.059502
vt 0.951731 0.059502
vt 0.970329 0.068660
vt 0.951731 0.068659
vt 0.970329 0.409797
vt 0.951731 0.409797
vt 0.970329 0.418954
vt 0.951731 0.418954
vt 0.951731 0.546066
vt 0.970330 0.546066
vt 0.951731 0.536909
vt 0.970330 0.536908
vt 0.416685 0.688082
vt 0.056017 0.688082
vt 0.028822 0.681412
vt 0.022152 0.654218
vt 0.022151 0.055789
vt 0.028821 0.028594
vt 0.056015 0.021924
vt 0.416685 0.021924
vt 0.443879 0.028594
vt 0.450549 0.055788
vt 0.450550 0.654217
vt 0.443880 0.681411
vt 0.921814 0.049981
vt 0.921814 0.648410
vt 0.915144 0.675604
vt 0.887950 0.682274
vt 0.527281 0.682274
vt 0.500086 0.675604
vt 0.493417 0.648410
vt 0.493417 0.049981
vt 0.500086 0.022786
vt 0.527281 0.016116
vt 0.887950 0.016116
vt 0.915144 0.022786
vn 0.000000 0.000000 1.000000
vn 1.000000 0.000000 0.000000
vn 0.000000 -1.000000 0.000000
vn -0.995400 0.000000 -0.096100
vn -0.691800 0.000000 -0.722100
vn 0.000000 0.000000 -1.000000
vn 0.691800 0.000000 -0.722100
vn 0.995400 0.000000 -0.096100
vn -1.000000 0.000000 0.000000
vn 0.000000 1.000000 0.000000
vn 0.120000 -0.992800 0.000000
vn -0.120000 -0.992800 0.000000
vn -0.120000 0.992800 0.000000
vn 0.120000 0.992800 0.000000
vn 0.707100 0.707100 0.000000
vn 0.992800 0.120000 0.000000
vn 0.707100 -0.707100 0.000000
vn 0.992800 -0.120000 0.000000
vn -0.707100 0.707100 0.000000
vn -0.992800 0.120000 0.000000
vn -0.707100 -0.707100 0.000000
vn -0.992800 -0.120000 0.000000
usemtl None
s 1
f 10/1/1 4/2/1 66/3/1 11/4/1
f 59/5/1 9/6/1 12/7/1 1/8/1
f 23/9/1 10/1/1 11/4/1 24/10/1
f 9/6/1 23/9/1 24/10/1 12/7/1
s 2
f 13/11/2 2/5/2 69/8/2 15/12/2
s 3
f 31/13/3 22/14/3 7/15/3 28/16/3
f 68/17/3 18/18/3 83/19/3 70/20/3
f 67/21/3 64/22/3 17/23/3 77/24/3
f 78/25/3 25/26/3 18/18/3 68/17/3
f 87/27/3 88/28/3 22/14/3 31/13/3
f 77/24/3 17/23/3 25/26/3 78/25/3
f 25/26/3 31/13/3 28/16/3 18/18/3
f 17/23/3 87/27/3 31/13/3 25/26/3
s 4
f 30/29/4 72/30/5 8/31/5 27/32/4
f 71/33/6 6/34/7 74/35/7 73/36/6
f 89/37/8 74/35/7 6/34/7 29/38/8
f 72/30/5 71/33/6 73/36/6 8/31/5
f 82/39/9 30/29/4 27/32/4 80/40/9
f 94/41/2 89/37/8 29/38/8 96/42/2
s 5
f 32/43/10 21/44/10 5/45/10 92/46/10
f 61/47/10 20/48/10 85/49/10 63/50/10
f 60/51/10 57/52/10 19/53/10 75/54/10
f 76/55/10 26/56/10 20/48/10 61/47/10
f 90/57/10 91/58/10 21/44/10 32/43/10
f 75/54/10 19/53/10 26/56/10 76/55/10
f 26/56/10 32/43/10 92/46/10 20/48/10
f 19/53/10 90/57/10 32/43/10 26/56/10
s 6
f 62/2/9 16/59/9 14/60/9 3/3/9
s 7
f 86/59/6 81/61/6 79/62/6 65/60/6
s 8
f 84/12/6 93/41/6 95/42/6 58/11/6
s 9
f 104/63/11 116/64/12 46/65/12 34/66/11
f 55/67/13 43/68/14 39/69/14 51/70/13
f 39/69/14 43/68/14 100/71/15 41/72/15
f 41/72/15 100/71/15 102/73/16 40/74/16
f 104/75/11 34/76/11 35/77/17 103/78/17
f 103/78/17 35/77/17 33/79/18 107/80/18
f 40/74/16 102/73/16 107/80/18 33/79/18
f 51/70/13 53/81/19 112/82/19 55/67/13
f 53/81/19 52/83/20 114/84/20 112/82/19
f 116/64/12 115/85/21 47/86/21 46/65/12
f 115/85/21 119/87/22 45/88/22 47/86/21
f 52/83/20 45/88/22 119/87/22 114/84/20
s 10
f 54/89/1 49/90/1 50/91/1 48/92/1 36/93/1 38/94/1 37/95/1 42/96/1 44/97/1 99/98/1 111/99/1 56/100/1
s 11
f 105/101/6 117/102/6 118/103/6 120/104/6 113/105/6 109/106/6 110/107/6 98/108/6 97/109/6 101/110/6 108/111/6 106/112/6
