# Blender v2.71 (sub 0) OBJ File: 'TraderShack_01.blend'
# www.blender.org
mtllib WaterBarrel_01.mtl
o WaterBarrel_01_Cube.010
v 0.000000 1.422662 -0.826978
v 0.321051 1.422662 -0.763118
v 0.593224 1.422662 -0.581257
v 0.775085 1.422662 -0.309083
v 0.838946 1.422662 0.011968
v 0.775085 1.422662 0.333018
v 0.593224 1.422662 0.605192
v 0.321051 1.422662 0.787052
v 0.000000 1.422662 0.850913
v -0.321050 1.422662 0.787052
v -0.593224 1.422662 0.605192
v -0.775085 1.422662 0.333018
v -0.838946 1.422662 0.011968
v -0.775085 1.422662 -0.309083
v -0.593224 1.422662 -0.581257
v -0.321050 1.422662 -0.763118
v 0.000000 -0.442699 -0.857108
v 0.000000 0.489982 -0.857107
v 0.332580 0.489982 -0.790953
v 0.332580 -0.442699 -0.790953
v 0.614528 0.489982 -0.602562
v 0.614528 -0.442699 -0.602562
v 0.802920 0.489982 -0.320613
v 0.802920 -0.442699 -0.320613
v 0.869075 0.489982 0.011967
v 0.869075 -0.442699 0.011967
v 0.802920 0.489982 0.344548
v 0.802920 -0.442699 0.344548
v 0.614528 0.489982 0.626496
v 0.614528 -0.442699 0.626496
v 0.332580 0.489982 0.814887
v 0.332580 -0.442699 0.814887
v 0.000000 0.489982 0.881042
v 0.000000 -0.442699 0.881041
v -0.332580 0.489982 0.814887
v -0.332580 -0.442699 0.814887
v -0.614528 0.489982 0.626496
v -0.614528 -0.442699 0.626496
v -0.802920 0.489982 0.344548
v -0.802920 -0.442699 0.344548
v -0.869075 0.489982 0.011967
v -0.869075 -0.442699 0.011967
v -0.802920 0.489982 -0.320613
v -0.802920 -0.442699 -0.320613
v -0.614528 0.489982 -0.602562
v -0.614528 -0.442699 -0.602562
v -0.332580 0.489982 -0.790953
v -0.332580 -0.442699 -0.790953
v 0.000000 1.432631 -0.842018
v 0.326806 1.432631 -0.777012
v 0.603859 1.432631 -0.591891
v 0.788979 1.432631 -0.314839
v 0.853985 1.432631 0.011968
v 0.788979 1.432631 0.338773
v 0.603859 1.432631 0.615826
v 0.326806 1.432631 0.800947
v 0.000000 1.432631 0.865952
v -0.326806 1.432631 0.800947
v -0.603858 1.432631 0.615826
v -0.788979 1.432631 0.338773
v -0.853985 1.432631 0.011968
v -0.788979 1.432631 -0.314839
v -0.603858 1.432631 -0.591891
v -0.326805 1.432631 -0.777012
v 0.000000 1.507201 -0.842018
v 0.326806 1.507201 -0.777012
v 0.603859 1.507201 -0.591891
v 0.788979 1.507201 -0.314839
v 0.853985 1.507201 0.011968
v 0.788979 1.507201 0.338773
v 0.603859 1.507201 0.615826
v 0.326806 1.507201 0.800947
v 0.000000 1.507201 0.865952
v -0.326806 1.507201 0.800947
v -0.603858 1.507201 0.615826
v -0.788979 1.507201 0.338774
v -0.853985 1.507201 0.011968
v -0.788979 1.507201 -0.314839
v -0.603858 1.507201 -0.591891
v -0.326805 1.507201 -0.777012
v 0.000000 1.519486 -0.792103
v 0.307705 1.519486 -0.730897
v 0.568564 1.519486 -0.556596
v 0.742864 1.519486 -0.295737
v 0.804071 1.519486 0.011968
v 0.742864 1.519486 0.319672
v 0.568564 1.519486 0.580531
v 0.307705 1.519486 0.754832
v 0.000000 1.519486 0.816038
v -0.307704 1.519486 0.754832
v -0.568564 1.519486 0.580531
v -0.742864 1.519486 0.319672
v -0.804071 1.519486 0.011968
v -0.742864 1.519486 -0.295737
v -0.568564 1.519486 -0.556596
v -0.307704 1.519486 -0.730897
v 0.000000 -1.330900 -0.828069
v 0.000000 -1.375379 -0.794545
v 0.321468 -1.330900 -0.764125
v 0.308639 -1.375379 -0.733153
v 0.593995 -1.330900 -0.582028
v 0.570290 -1.375379 -0.558323
v 0.776092 -1.330900 -0.309501
v 0.745119 -1.375379 -0.296672
v 0.840036 -1.330900 0.011967
v 0.806511 -1.375379 0.011967
v 0.776092 -1.330900 0.333434
v 0.745119 -1.375379 0.320605
v 0.593995 -1.330900 0.605962
v 0.570290 -1.375379 0.582256
v 0.321468 -1.330900 0.788058
v 0.308639 -1.375379 0.757086
v 0.000000 -1.330900 0.852002
v 0.000000 -1.375379 0.818478
v -0.321467 -1.330900 0.788058
v -0.308638 -1.375379 0.757086
v -0.593995 -1.330900 0.605962
v -0.570289 -1.375379 0.582256
v -0.776092 -1.330900 0.333434
v -0.745119 -1.375379 0.320605
v -0.840036 -1.330900 0.011967
v -0.806511 -1.375379 0.011967
v -0.776092 -1.330900 -0.309501
v -0.745119 -1.375379 -0.296672
v -0.593995 -1.330900 -0.582028
v -0.570289 -1.375379 -0.558323
v -0.321467 -1.330900 -0.764125
v -0.308638 -1.375379 -0.733153
v 0.321051 1.422662 -0.763118
v 0.000000 1.422662 -0.826978
v 0.593224 1.422662 -0.581257
v 0.775085 1.422662 -0.309083
v 0.838946 1.422662 0.011968
v 0.775085 1.422662 0.333018
v 0.593224 1.422662 0.605192
v 0.321051 1.422662 0.787052
v 0.000000 1.422662 0.850913
v -0.321050 1.422662 0.787052
v -0.593224 1.422662 0.605192
v -0.775085 1.422662 0.333018
v -0.838946 1.422662 0.011968
v -0.775085 1.422662 -0.309083
v -0.593224 1.422662 -0.581257
v -0.321050 1.422662 -0.763118
v 0.308639 -1.375379 -0.733153
v 0.000000 -1.375379 -0.794545
v 0.570290 -1.375379 -0.558323
v 0.745119 -1.375379 -0.296672
v 0.806511 -1.375379 0.011967
v 0.745119 -1.375379 0.320605
v 0.570290 -1.375379 0.582256
v 0.308639 -1.375379 0.757086
v 0.000000 -1.375379 0.818478
v -0.308638 -1.375379 0.757086
v -0.570289 -1.375379 0.582256
v -0.745119 -1.375379 0.320605
v -0.806511 -1.375379 0.011967
v -0.745119 -1.375379 -0.296672
v -0.570289 -1.375379 -0.558323
v -0.308638 -1.375379 -0.733153
vt 0.313478 0.412357
vt 0.313478 0.469149
vt 0.282505 0.469149
vt 0.282505 0.412357
vt 0.251863 0.469149
vt 0.251863 0.412357
vt 0.221621 0.469149
vt 0.221621 0.412357
vt 0.191307 0.469149
vt 0.191307 0.412357
vt 0.161480 0.469149
vt 0.161480 0.412357
vt 0.131945 0.469149
vt 0.131945 0.412357
vt 0.102692 0.469149
vt 0.102692 0.412357
vt 0.073723 0.469149
vt 0.073723 0.412357
vt 0.045114 0.469149
vt 0.045114 0.412357
vt 0.016016 0.469149
vt 0.016016 0.412357
vt 0.505356 0.412357
vt 0.505356 0.469149
vt 0.472472 0.469149
vt 0.472472 0.412357
vt 0.440137 0.469149
vt 0.440137 0.412357
vt 0.408064 0.469149
vt 0.408064 0.412357
vt 0.376260 0.469149
vt 0.376260 0.412357
vt 0.344731 0.412357
vt 0.344731 0.469149
vt 0.344731 0.309995
vt 0.344731 0.358788
vt 0.313478 0.358788
vt 0.313478 0.309995
vt 0.282505 0.309995
vt 0.282505 0.358788
vt 0.251863 0.358788
vt 0.251863 0.309995
vt 0.221621 0.358788
vt 0.221621 0.309995
vt 0.191307 0.358788
vt 0.191307 0.309995
vt 0.161480 0.358788
vt 0.161480 0.309995
vt 0.131945 0.358788
vt 0.131945 0.309995
vt 0.102692 0.358789
vt 0.102692 0.309995
vt 0.073723 0.358788
vt 0.073723 0.309995
vt 0.045114 0.358788
vt 0.045114 0.309995
vt 0.016016 0.358789
vt 0.016016 0.309995
vt 0.505356 0.309995
vt 0.505356 0.358788
vt 0.472472 0.358788
vt 0.472472 0.309995
vt 0.440137 0.358788
vt 0.440137 0.309995
vt 0.408064 0.358788
vt 0.408064 0.309995
vt 0.376260 0.358788
vt 0.376260 0.309995
vt 0.282505 0.306529
vt 0.313478 0.306529
vt 0.251863 0.306529
vt 0.221621 0.306529
vt 0.191307 0.306529
vt 0.161480 0.306529
vt 0.131945 0.306529
vt 0.102692 0.306529
vt 0.073723 0.306529
vt 0.045114 0.306529
vt 0.016016 0.306529
vt 0.472472 0.306529
vt 0.505356 0.306529
vt 0.440137 0.306529
vt 0.408064 0.306529
vt 0.376260 0.306529
vt 0.344731 0.306529
vt 0.450399 0.157501
vt 0.467545 0.174648
vt 0.476825 0.197051
vt 0.476825 0.221301
vt 0.467545 0.243704
vt 0.450398 0.260851
vt 0.427995 0.270131
vt 0.403746 0.270131
vt 0.381343 0.260851
vt 0.364196 0.243704
vt 0.354916 0.221301
vt 0.354916 0.197051
vt 0.364196 0.174648
vt 0.381343 0.157501
vt 0.403746 0.148222
vt 0.427995 0.148222
vt 0.313478 0.470588
vt 0.282505 0.470588
vt 0.472472 0.470588
vt 0.505356 0.470588
vt 0.505356 0.475386
vt 0.472472 0.475386
vt 0.102692 0.470588
vt 0.073723 0.470588
vt 0.251863 0.470588
vt 0.221621 0.470588
vt 0.408064 0.470588
vt 0.376260 0.470588
vt 0.161480 0.470588
vt 0.131945 0.470588
vt 0.045114 0.470588
vt 0.440137 0.470588
vt 0.191307 0.470588
vt 0.344731 0.470588
vt 0.016016 0.470588
vt 0.282505 0.475386
vt 0.313478 0.475386
vt 0.313478 0.479664
vt 0.282505 0.479664
vt 0.073723 0.475386
vt 0.045114 0.475386
vt 0.131945 0.475386
vt 0.102692 0.475386
vt 0.191307 0.475386
vt 0.161480 0.475386
vt 0.344731 0.475386
vt 0.251863 0.475386
vt 0.221621 0.475386
vt 0.408064 0.475386
vt 0.376260 0.475386
vt 0.440137 0.475386
vt 0.016016 0.475386
vt 0.472472 0.479664
vt 0.440137 0.479664
vt 0.045114 0.479664
vt 0.016016 0.479664
vt 0.102692 0.479664
vt 0.073723 0.479664
vt 0.161480 0.479664
vt 0.131945 0.479664
vt 0.221621 0.479664
vt 0.191307 0.479664
vt 0.376260 0.479664
vt 0.344731 0.479664
vt 0.251863 0.479664
vt 0.408064 0.479664
vt 0.505356 0.479664
vt 0.413073 0.134279
vt 0.390693 0.125009
vt 0.373565 0.107881
vt 0.364295 0.085501
vt 0.364295 0.061278
vt 0.373565 0.038899
vt 0.390693 0.021770
vt 0.413073 0.012500
vt 0.437296 0.012500
vt 0.459675 0.021770
vt 0.476804 0.038899
vt 0.486074 0.061278
vt 0.486073 0.085501
vt 0.476804 0.107881
vt 0.459675 0.125009
vt 0.437296 0.134279
vn 0.000000 0.016100 -0.999800
vn -0.000000 0.032300 -0.999500
vn 0.382500 0.032300 -0.923400
vn 0.382600 0.016100 -0.923700
vn 0.706700 0.032300 -0.706700
vn 0.707000 0.016100 -0.707000
vn 0.923400 0.032300 -0.382500
vn 0.923700 0.016100 -0.382600
vn 0.999500 0.032300 0.000000
vn 0.999800 0.016100 0.000000
vn 0.923400 0.032300 0.382500
vn 0.923700 0.016100 0.382600
vn 0.706700 0.032300 0.706700
vn 0.707000 0.016100 0.707000
vn 0.382500 0.032300 0.923400
vn 0.382600 0.016100 0.923700
vn 0.000000 0.032300 0.999500
vn 0.000000 0.016100 0.999800
vn -0.382500 0.032300 0.923400
vn -0.382600 0.016100 0.923700
vn -0.706700 0.032300 0.706700
vn -0.707000 0.016100 0.707000
vn -0.923400 0.032300 0.382500
vn -0.923700 0.016100 0.382600
vn -0.999500 0.032300 0.000000
vn -0.999800 0.016100 0.000000
vn -0.923400 0.032300 -0.382500
vn -0.923700 0.016100 -0.382600
vn -0.706700 0.032300 -0.706700
vn -0.707000 0.016100 -0.707000
vn -0.382600 0.016100 -0.923700
vn -0.382500 0.032300 -0.923400
vn -0.362300 -0.321600 -0.874800
vn -0.382600 -0.016300 -0.923700
vn 0.000000 -0.016300 -0.999800
vn 0.000000 -0.321600 -0.946900
vn 0.362300 -0.321600 -0.874800
vn 0.382600 -0.016300 -0.923700
vn 0.707000 -0.016300 -0.707000
vn 0.669500 -0.321600 -0.669500
vn 0.923700 -0.016300 -0.382600
vn 0.874800 -0.321600 -0.362300
vn 0.999800 -0.016300 0.000000
vn 0.946900 -0.321600 0.000000
vn 0.923700 -0.016300 0.382600
vn 0.874800 -0.321600 0.362300
vn 0.707000 -0.016300 0.707000
vn 0.669500 -0.321600 0.669500
vn 0.382600 -0.016300 0.923700
vn 0.362300 -0.321600 0.874800
vn 0.000000 -0.016300 0.999800
vn 0.000000 -0.321600 0.946900
vn -0.382600 -0.016300 0.923700
vn -0.362300 -0.321600 0.874800
vn -0.707000 -0.016300 0.707000
vn -0.669500 -0.321600 0.669500
vn -0.923700 -0.016300 0.382600
vn -0.874800 -0.321600 0.362300
vn -0.999800 -0.016300 0.000000
vn -0.946900 -0.321600 0.000000
vn -0.923700 -0.016300 -0.382600
vn -0.874800 -0.321600 -0.362300
vn -0.707000 -0.016300 -0.707000
vn -0.669500 -0.321600 -0.669500
vn 0.305600 -0.601900 -0.737800
vn 0.000000 -0.601900 -0.798600
vn 0.564700 -0.601900 -0.564700
vn 0.737800 -0.601900 -0.305600
vn 0.798600 -0.601900 -0.000000
vn 0.737800 -0.601900 0.305600
vn 0.564700 -0.601900 0.564700
vn 0.305600 -0.601900 0.737800
vn -0.000000 -0.601900 0.798600
vn -0.305600 -0.601900 0.737800
vn -0.564700 -0.601900 0.564700
vn -0.737800 -0.601900 0.305600
vn -0.798600 -0.601900 -0.000000
vn -0.737800 -0.601900 -0.305600
vn -0.564700 -0.601900 -0.564700
vn -0.305600 -0.601900 -0.737800
vn 0.000000 -1.000000 -0.000000
vn 0.211400 -0.833500 -0.510400
vn 0.000000 -0.833500 -0.552500
vn 0.000000 -0.450100 -0.893000
vn 0.341700 -0.450100 -0.825000
vn -0.825000 -0.450100 0.341700
vn -0.631400 -0.450100 0.631400
vn -0.575000 0.582000 0.575000
vn -0.751200 0.582000 0.311200
vn -0.000000 -0.833500 0.552500
vn 0.211400 -0.833500 0.510400
vn 0.341700 -0.450100 0.825000
vn 0.000000 -0.450100 0.893000
vn -0.510400 -0.833500 0.211400
vn -0.390700 -0.833500 0.390700
vn 0.510400 -0.833500 -0.211400
vn 0.390700 -0.833500 -0.390700
vn 0.631400 -0.450100 -0.631400
vn 0.825000 -0.450100 -0.341700
vn -0.390700 -0.833500 -0.390700
vn -0.510400 -0.833500 -0.211400
vn -0.825000 -0.450100 -0.341700
vn -0.631400 -0.450100 -0.631400
vn 0.390700 -0.833500 0.390700
vn 0.510400 -0.833500 0.211400
vn 0.825000 -0.450100 0.341700
vn 0.631400 -0.450100 0.631400
vn -0.211400 -0.833500 0.510400
vn -0.341700 -0.450100 0.825000
vn -0.552500 -0.833500 0.000000
vn -0.893000 -0.450100 0.000000
vn 0.552500 -0.833500 0.000000
vn 0.893000 -0.450100 0.000000
vn -0.211400 -0.833500 -0.510400
vn -0.341700 -0.450100 -0.825000
vn 0.311200 0.582000 -0.751200
vn 0.000000 0.582000 -0.813100
vn 0.000000 0.990800 -0.135100
vn 0.051700 0.990800 -0.124900
vn 0.000000 0.582000 0.813100
vn -0.311200 0.582000 0.751200
vn 0.575000 0.582000 0.575000
vn 0.311200 0.582000 0.751200
vn 0.813100 0.582000 0.000000
vn 0.751200 0.582000 0.311200
vn -0.311200 0.582000 -0.751200
vn 0.575000 0.582000 -0.575000
vn 0.751200 0.582000 -0.311200
vn -0.751200 0.582000 -0.311200
vn -0.575000 0.582000 -0.575000
vn -0.813100 0.582000 0.000000
vn -0.124900 0.990800 0.051700
vn -0.135100 0.990800 0.000000
vn -0.051700 0.990800 0.124900
vn -0.095600 0.990800 0.095600
vn 0.051700 0.990800 0.124900
vn 0.000000 0.990800 0.135100
vn 0.124900 0.990800 0.051700
vn 0.095600 0.990800 0.095600
vn 0.124900 0.990800 -0.051700
vn 0.135100 0.990800 0.000000
vn -0.095600 0.990800 -0.095600
vn -0.051700 0.990800 -0.124900
vn 0.095600 0.990800 -0.095600
vn -0.124900 0.990800 -0.051700
usemtl Material.001
s 1
f 18/1/1 1/2/2 2/3/3 19/4/4
f 19/4/4 2/3/3 3/5/5 21/6/6
f 21/6/6 3/5/5 4/7/7 23/8/8
f 23/8/8 4/7/7 5/9/9 25/10/10
f 25/10/10 5/9/9 6/11/11 27/12/12
f 27/12/12 6/11/11 7/13/13 29/14/14
f 29/14/14 7/13/13 8/15/15 31/16/16
f 31/16/16 8/15/15 9/17/17 33/18/18
f 33/18/18 9/17/17 10/19/19 35/20/20
f 35/20/20 10/19/19 11/21/21 37/22/22
f 37/23/22 11/24/21 12/25/23 39/26/24
f 39/26/24 12/25/23 13/27/25 41/28/26
f 41/28/26 13/27/25 14/29/27 43/30/28
f 43/30/28 14/29/27 15/31/29 45/32/30
f 47/33/31 16/34/32 1/2/2 18/1/1
f 45/32/30 15/31/29 16/34/32 47/33/31
f 127/35/33 48/36/34 17/37/35 97/38/36
f 99/39/37 20/40/38 22/41/39 101/42/40
f 17/37/35 18/1/1 19/4/4 20/40/38
f 101/42/40 22/41/39 24/43/41 103/44/42
f 20/40/38 19/4/4 21/6/6 22/41/39
f 103/44/42 24/43/41 26/45/43 105/46/44
f 22/41/39 21/6/6 23/8/8 24/43/41
f 105/46/44 26/45/43 28/47/45 107/48/46
f 24/43/41 23/8/8 25/10/10 26/45/43
f 107/48/46 28/47/45 30/49/47 109/50/48
f 26/45/43 25/10/10 27/12/12 28/47/45
f 109/50/48 30/49/47 32/51/49 111/52/50
f 28/47/45 27/12/12 29/14/14 30/49/47
f 111/52/50 32/51/49 34/53/51 113/54/52
f 30/49/47 29/14/14 31/16/16 32/51/49
f 113/54/52 34/53/51 36/55/53 115/56/54
f 32/51/49 31/16/16 33/18/18 34/53/51
f 115/56/54 36/55/53 38/57/55 117/58/56
f 34/53/51 33/18/18 35/20/20 36/55/53
f 117/59/56 38/60/55 40/61/57 119/62/58
f 36/55/53 35/20/20 37/22/22 38/57/55
f 119/62/58 40/61/57 42/63/59 121/64/60
f 38/60/55 37/23/22 39/26/24 40/61/57
f 121/64/60 42/63/59 44/65/61 123/66/62
f 40/61/57 39/26/24 41/28/26 42/63/59
f 123/66/62 44/65/61 46/67/63 125/68/64
f 42/63/59 41/28/26 43/30/28 44/65/61
f 125/68/64 46/67/63 48/36/34 127/35/33
f 44/65/61 43/30/28 45/32/30 46/67/63
f 97/38/36 17/37/35 20/40/38 99/39/37
f 48/36/34 47/33/31 18/1/1 17/37/35
f 46/67/63 45/32/30 47/33/31 48/36/34
f 97/38/36 99/39/37 100/69/65 98/70/66
f 99/39/37 101/42/40 102/71/67 100/69/65
f 101/42/40 103/44/42 104/72/68 102/71/67
f 103/44/42 105/46/44 106/73/69 104/72/68
f 105/46/44 107/48/46 108/74/70 106/73/69
f 107/48/46 109/50/48 110/75/71 108/74/70
f 109/50/48 111/52/50 112/76/72 110/75/71
f 111/52/50 113/54/52 114/77/73 112/76/72
f 113/54/52 115/56/54 116/78/74 114/77/73
f 115/56/54 117/58/56 118/79/75 116/78/74
f 117/59/56 119/62/58 120/80/76 118/81/75
f 119/62/58 121/64/60 122/82/77 120/80/76
f 121/64/60 123/66/62 124/83/78 122/82/77
f 123/66/62 125/68/64 126/84/79 124/83/78
f 125/68/64 127/35/33 128/85/80 126/84/79
f 127/35/33 97/38/36 98/70/66 128/85/80
s 3
f 146/86/81 145/87/81 147/88/81 148/89/81 149/90/81 150/91/81 151/92/81 152/93/81 153/94/81 154/95/81 155/96/81 156/97/81 157/98/81 158/99/81 159/100/81 160/101/81
usemtl Material
s 2
f 129/3/82 130/2/83 49/102/84 50/103/85
f 60/104/86 59/105/87 75/106/88 76/107/89
f 137/17/90 136/15/91 56/108/92 57/109/93
f 140/25/94 139/24/95 59/105/87 60/104/86
f 132/7/96 131/5/97 51/110/98 52/111/99
f 143/31/100 142/29/101 62/112/102 63/113/103
f 135/13/104 134/11/105 54/114/106 55/115/107
f 138/19/108 137/17/90 57/109/93 58/116/109
f 141/27/110 140/25/94 60/104/86 61/117/111
f 133/9/112 132/7/96 52/111/99 53/118/113
f 144/34/114 143/31/100 63/113/103 64/119/115
f 136/15/91 135/13/104 55/115/107 56/108/92
f 139/21/95 138/19/108 58/116/109 59/120/87
f 131/5/97 129/3/82 50/103/85 51/110/98
f 142/29/101 141/27/110 61/117/111 62/112/102
f 134/11/105 133/9/112 53/118/113 54/114/106
f 130/2/83 144/34/114 64/119/115 49/102/84
f 66/121/116 65/122/117 81/123/118 82/124/119
f 58/116/109 57/109/93 73/125/120 74/126/121
f 56/108/92 55/115/107 71/127/122 72/128/123
f 54/114/106 53/118/113 69/129/124 70/130/125
f 49/102/84 64/119/115 80/131/126 65/122/117
f 52/111/99 51/110/98 67/132/127 68/133/128
f 63/113/103 62/112/102 78/134/129 79/135/130
f 50/103/85 49/102/84 65/122/117 66/121/116
f 61/117/111 60/104/86 76/107/89 77/136/131
f 59/120/87 58/116/109 74/126/121 75/137/88
f 57/109/93 56/108/92 72/128/123 73/125/120
f 55/115/107 54/114/106 70/130/125 71/127/122
f 53/118/113 52/111/99 68/133/128 69/129/124
f 64/119/115 63/113/103 79/135/130 80/131/126
f 51/110/98 50/103/85 66/121/116 67/132/127
f 62/112/102 61/117/111 77/136/131 78/134/129
f 77/136/131 76/107/89 92/138/132 93/139/133
f 75/137/88 74/126/121 90/140/134 91/141/135
f 73/125/120 72/128/123 88/142/136 89/143/137
f 71/127/122 70/130/125 86/144/138 87/145/139
f 69/129/124 68/133/128 84/146/140 85/147/141
f 80/131/126 79/135/130 95/148/142 96/149/143
f 67/132/127 66/121/116 82/124/119 83/150/144
f 78/134/129 77/136/131 93/139/133 94/151/145
f 76/107/89 75/106/88 91/152/135 92/138/132
f 74/126/121 73/125/120 89/143/137 90/140/134
f 72/128/123 71/127/122 87/145/139 88/142/136
f 70/130/125 69/129/124 85/147/141 86/144/138
f 65/122/117 80/131/126 96/149/143 81/123/118
f 68/133/128 67/132/127 83/150/144 84/146/140
f 79/135/130 78/134/129 94/151/145 95/148/142
f 82/153/119 81/154/118 96/155/143 95/156/142 94/157/145 93/158/133 92/159/132 91/160/135 90/161/134 89/162/137 88/163/136 87/164/139 86/165/138 85/166/141 84/167/140 83/168/144
