# Blender v2.71 (sub 0) OBJ File: 'TraderShack_01.blend'
# www.blender.org
mtllib WoodenPlank_02.mtl
o WoodenPlank_02_Cube.014
v 5.889818 5.505903 5.070940
v 5.812952 5.581058 5.070940
v 5.882019 5.570671 5.070940
v 5.812952 5.581058 4.949990
v 5.889818 5.505903 4.949990
v 5.882019 5.570671 4.949990
v 3.954516 5.475163 5.070940
v 3.891187 5.407525 5.070940
v 3.904302 5.456845 5.070940
v 3.891187 5.407525 4.949990
v 3.954516 5.475163 4.949990
v 3.904302 5.456845 4.949990
v 5.705245 1.943483 5.070938
v 5.749866 1.980445 5.070938
v 5.736515 1.951054 5.070938
v 5.749866 1.980445 4.949987
v 5.705245 1.943483 4.949987
v 5.736515 1.951054 4.949987
v 3.866941 1.951074 5.070938
v 3.925652 1.920260 5.070938
v 3.882820 1.927554 5.070938
v 3.925652 1.920260 4.949987
v 3.866941 1.951074 4.949987
v 3.882820 1.927554 4.949987
v 5.882019 5.570671 4.949990
v 5.812952 5.581058 4.949990
v 5.812952 5.581058 5.070940
v 5.882019 5.570671 5.070940
v 5.889818 5.505903 4.949990
v 5.889818 5.505903 5.070940
v 3.904302 5.456845 5.070940
v 3.954516 5.475163 5.070940
v 3.954516 5.475163 4.949990
v 3.904302 5.456845 4.949990
v 3.891187 5.407525 5.070940
v 3.891187 5.407525 4.949990
v 5.736515 1.951054 4.949987
v 5.749866 1.980445 4.949987
v 5.749866 1.980445 5.070938
v 5.736515 1.951054 5.070938
v 5.705245 1.943483 4.949987
v 5.705245 1.943483 5.070938
v 3.882820 1.927554 4.949987
v 3.925652 1.920260 4.949987
v 3.925652 1.920260 5.070938
v 3.882820 1.927554 5.070938
v 3.866941 1.951074 4.949987
v 3.866941 1.951074 5.070938
vt 0.161503 0.266952
vt 0.160358 0.268571
vt 0.157355 0.269015
vt 0.033104 0.264681
vt 0.030931 0.264105
vt 0.030044 0.262032
vt 0.025642 0.015600
vt 0.026285 0.011088
vt 0.031125 0.010468
vt 0.160757 0.020696
vt 0.164236 0.022052
vt 0.165077 0.025516
vt 0.515903 0.252670
vt 0.528363 0.252674
vt 0.528022 0.368174
vt 0.515568 0.368170
vt 0.515554 0.010972
vt 0.528109 0.010969
vt 0.528276 0.072401
vt 0.515723 0.072404
vt 0.528008 0.372596
vt 0.515555 0.372592
vt 0.515562 0.370306
vt 0.528015 0.370310
vt 0.528277 0.074164
vt 0.515731 0.074167
vt 0.528278 0.075847
vt 0.515737 0.075850
vt 0.515900 0.251613
vt 0.528372 0.251616
vt 0.515895 0.250558
vt 0.528380 0.250560
vt 0.528475 0.189763
vt 0.515944 0.189765
vt 0.528459 0.192127
vt 0.515961 0.192126
vt 0.515953 0.190698
vt 0.528467 0.190698
vt 0.184938 0.273002
vt 0.181787 0.272411
vt 0.180644 0.270656
vt 0.186699 0.015632
vt 0.187727 0.012009
vt 0.191455 0.010719
vt 0.328721 0.005199
vt 0.333805 0.006050
vt 0.334300 0.010839
vt 0.319621 0.270813
vt 0.318600 0.272965
vt 0.316284 0.273484
vn -0.000000 -0.000000 1.000000
vn 0.973000 -0.230900 0.000000
vn 0.999200 0.040100 0.000000
vn 0.046200 0.998900 -0.000000
vn -0.202000 0.979400 -0.000000
vn 0.717400 0.696600 -0.000000
vn -0.738200 0.674600 0.000000
vn -0.991100 0.133100 0.000000
vn 0.637300 -0.770600 0.000000
vn 0.125000 -0.992200 0.000000
vn -0.957300 -0.289200 0.000000
vn -0.077700 -0.997000 0.000000
vn -0.542000 -0.840400 0.000000
vn -0.000000 0.000000 -1.000000
usemtl Material.005
s 1
f 19/1/1 21/2/1 45/3/1 13/4/1 15/5/1 39/6/1 1/7/1 3/8/1 27/9/1 7/10/1 9/11/1 8/12/1
s 2
f 14/13/2 38/14/2 5/15/3 30/16/3
f 2/17/4 4/18/4 11/19/5 32/20/5
f 4/21/4 2/22/4 28/23/6 6/24/6
f 6/24/6 28/23/6 30/16/3 5/15/3
f 32/20/5 11/19/5 34/25/7 31/26/7
f 31/26/7 34/25/7 36/27/8 35/28/8
f 38/14/2 14/13/2 40/29/9 37/30/9
f 37/30/9 40/29/9 42/31/10 41/32/10
f 35/28/8 36/27/8 47/33/11 48/34/11
f 44/35/12 20/36/12 46/37/13 43/38/13
f 43/38/13 46/37/13 48/34/11 47/33/11
f 20/36/12 44/35/12 41/32/10 42/31/10
s 3
f 22/39/14 24/40/14 23/41/14 10/42/14 12/43/14 33/44/14 26/45/14 25/46/14 29/47/14 16/48/14 18/49/14 17/50/14
