# Blender v2.71 (sub 0) OBJ File: 'TraderShack_01.blend'
# www.blender.org
mtllib WoodenPlank_01.mtl
o WoodenPlank_01_Cube.013
v -4.834927 1.457503 7.103426
v -5.058288 1.457503 7.007749
v -4.992867 1.457503 7.089509
v -5.058288 1.457503 5.047044
v -4.834927 1.457503 4.951366
v -4.992867 1.457503 4.965283
v 4.834927 1.457503 4.951366
v 5.058288 1.457503 5.032016
v 4.992867 1.457503 4.965283
v 5.058288 1.457503 7.022777
v 4.834927 1.457503 7.103426
v 4.992867 1.457503 7.089509
v -5.058288 1.620810 7.007749
v -4.834927 1.620810 7.103426
v -4.992867 1.620810 7.089509
v -4.834927 1.620810 4.951366
v -5.058288 1.620810 5.047044
v -4.992867 1.620810 4.965283
v 5.058288 1.620810 5.032016
v 4.834927 1.620810 4.951366
v 4.992867 1.620810 4.965283
v 4.834927 1.620810 7.103426
v 5.058288 1.620810 7.022777
v 4.992867 1.620810 7.089509
v -4.992867 1.457503 7.089509
v -4.834927 1.457503 7.103426
v -4.834927 1.620810 7.103426
v -4.992867 1.620810 7.089509
v -5.058288 1.457503 7.007749
v -5.058288 1.620810 7.007749
v -4.992867 1.620810 4.965283
v -4.834927 1.620810 4.951366
v -4.834927 1.457503 4.951366
v -4.992867 1.457503 4.965283
v -5.058288 1.620810 5.047044
v -5.058288 1.457503 5.047044
v 4.992867 1.620810 4.965283
v 5.058288 1.620810 5.032016
v 5.058288 1.457503 5.032016
v 4.992867 1.457503 4.965283
v 4.834927 1.620810 4.951366
v 4.834927 1.457503 4.951366
v 4.992867 1.620810 7.089509
v 4.834927 1.620810 7.103426
v 4.834927 1.457503 7.103426
v 4.992867 1.457503 7.089509
v 5.058288 1.620810 7.022777
v 5.058288 1.457503 7.022777
vt 0.013503 0.992024
vt 0.009252 0.991650
vt 0.007492 0.989449
vt 0.007492 0.936679
vt 0.009252 0.934479
vt 0.013503 0.934104
vt 0.273755 0.934104
vt 0.278005 0.934479
vt 0.279766 0.936275
vt 0.279766 0.989853
vt 0.278005 0.991650
vt 0.273755 0.992024
vt 0.453050 0.827788
vt 0.366557 0.827789
vt 0.366556 0.815276
vt 0.453049 0.815276
vt 0.177086 0.827789
vt 0.087712 0.827789
vt 0.087712 0.815276
vt 0.177087 0.815276
vt 0.362015 0.827789
vt 0.272642 0.827789
vt 0.272641 0.815276
vt 0.362014 0.815276
vt 0.271062 0.827789
vt 0.271062 0.815276
vt 0.267458 0.827789
vt 0.267458 0.815276
vt 0.178667 0.815276
vt 0.178666 0.827789
vt 0.182270 0.815276
vt 0.182270 0.827789
vt 0.456011 0.815276
vt 0.456012 0.827788
vt 0.457591 0.815276
vt 0.457592 0.827788
vt 0.363594 0.815276
vt 0.363595 0.827789
vt 0.428114 0.836859
vt 0.434834 0.837451
vt 0.437618 0.840291
vt 0.437618 0.924993
vt 0.434834 0.927832
vt 0.428114 0.928424
vt 0.016684 0.928424
vt 0.009964 0.927832
vt 0.007181 0.924354
vt 0.007181 0.840930
vt 0.009964 0.837451
vt 0.016684 0.836859
vn 0.000000 -1.000000 0.000000
vn 0.925800 0.000000 -0.378100
vn 0.925800 0.000000 0.378100
vn -0.043900 0.000000 -0.999000
vn 0.043900 0.000000 -0.999000
vn 0.043900 0.000000 0.999000
vn -0.043900 0.000000 0.999000
vn -0.472300 0.000000 0.881400
vn -0.943600 0.000000 0.331000
vn -0.943600 0.000000 0.331100
vn -0.472300 0.000000 -0.881400
vn -0.943600 0.000000 -0.331000
vn 0.427400 0.000000 -0.904100
vn 0.427400 0.000000 0.904100
vn 0.000000 1.000000 -0.000000
usemtl Material.004
s 1
f 1/1/1 3/2/1 2/3/1 4/4/1 6/5/1 33/6/1 7/7/1 9/8/1 39/9/1 10/10/1 12/11/1 45/12/1
s 2
f 38/13/2 47/14/3 48/15/3 8/16/2
f 32/17/4 41/18/5 42/19/5 5/20/4
f 44/21/6 14/22/7 26/23/7 11/24/6
f 26/23/7 14/22/7 28/25/8 25/26/8
f 25/26/8 28/25/8 30/27/9 29/28/10
f 32/17/4 5/20/4 34/29/11 31/30/11
f 31/30/11 34/29/11 36/31/12 35/32/12
f 38/13/2 8/16/2 40/33/13 37/34/13
f 37/34/13 40/33/13 42/35/5 41/36/5
f 44/21/6 11/24/6 46/37/14 43/38/14
f 43/38/14 46/37/14 48/15/3 47/14/3
f 30/27/9 35/32/12 36/31/12 29/28/10
s 3
f 22/39/15 24/40/15 23/41/15 19/42/15 21/43/15 20/44/15 16/45/15 18/46/15 17/47/15 13/48/15 15/49/15 27/50/15
